<svg xmlns="http://www.w3.org/2000/svg" xmlns:xlink="http://www.w3.org/1999/xlink" width="600" zoomAndPan="magnify" viewBox="0 0 450 449.999984" height="600" preserveAspectRatio="xMidYMid meet" version="1.0"><defs><g/><clipPath id="f9a551a144"><path d="M 89 71 L 286 71 L 286 247 L 89 247 Z M 89 71 " clip-rule="nonzero"/></clipPath><clipPath id="97bd9553e5"><path d="M 88.035156 208.105469 L 253.347656 69.964844 L 286.585938 109.738281 L 121.273438 247.882812 Z M 88.035156 208.105469 " clip-rule="nonzero"/></clipPath><clipPath id="9020e80ef5"><path d="M 90.910156 205.703125 L 250.4375 72.394531 C 251.203125 71.753906 252.1875 71.449219 253.175781 71.535156 C 254.167969 71.625 255.082031 72.101562 255.71875 72.867188 L 284.148438 106.886719 C 284.785156 107.648438 285.09375 108.632812 285.007812 109.625 C 284.917969 110.617188 284.4375 111.53125 283.675781 112.167969 L 124.148438 245.476562 C 123.386719 246.113281 122.402344 246.421875 121.410156 246.335938 C 120.417969 246.246094 119.503906 245.765625 118.867188 245.003906 L 90.4375 210.984375 C 89.800781 210.222656 89.492188 209.238281 89.582031 208.246094 C 89.667969 207.253906 90.148438 206.339844 90.910156 205.703125 Z M 90.910156 205.703125 " clip-rule="nonzero"/></clipPath><clipPath id="acda75ebb8"><path d="M 0.28125 0.28125 L 196.121094 0.28125 L 196.121094 175.480469 L 0.28125 175.480469 Z M 0.28125 0.28125 " clip-rule="nonzero"/></clipPath><clipPath id="3878ca31b2"><path d="M -0.964844 137.105469 L 164.347656 -1.035156 L 197.585938 38.738281 L 32.273438 176.882812 Z M -0.964844 137.105469 " clip-rule="nonzero"/></clipPath><clipPath id="5419bd0406"><path d="M 1.910156 134.703125 L 161.4375 1.394531 C 162.203125 0.753906 163.1875 0.449219 164.175781 0.535156 C 165.167969 0.625 166.082031 1.101562 166.71875 1.867188 L 195.148438 35.886719 C 195.785156 36.648438 196.09375 37.632812 196.007812 38.625 C 195.917969 39.617188 195.4375 40.53125 194.675781 41.167969 L 35.148438 174.476562 C 34.386719 175.113281 33.402344 175.421875 32.410156 175.335938 C 31.417969 175.246094 30.503906 174.765625 29.867188 174.003906 L 1.4375 139.984375 C 0.800781 139.222656 0.492188 138.238281 0.582031 137.246094 C 0.667969 136.253906 1.148438 135.339844 1.910156 134.703125 Z M 1.910156 134.703125 " clip-rule="nonzero"/></clipPath><clipPath id="7e6a0f0d7b"><rect x="0" width="197" y="0" height="176"/></clipPath><clipPath id="dc0d77b02d"><path d="M 89 71 L 286 71 L 286 247 L 89 247 Z M 89 71 " clip-rule="nonzero"/></clipPath><clipPath id="c75a101d39"><path d="M 88.035156 208.105469 L 253.203125 70.082031 L 286.390625 109.792969 L 121.21875 247.816406 Z M 88.035156 208.105469 " clip-rule="nonzero"/></clipPath><clipPath id="f834f963b9"><path d="M 88.035156 208.105469 L 256.484375 67.34375 L 294.875 113.28125 L 126.425781 254.046875 Z M 88.035156 208.105469 " clip-rule="nonzero"/></clipPath><clipPath id="023c3c83e2"><path d="M 90.914062 205.703125 L 250.433594 72.398438 C 251.195312 71.757812 252.183594 71.449219 253.171875 71.539062 C 254.164062 71.628906 255.078125 72.105469 255.714844 72.871094 L 284.144531 106.886719 C 284.78125 107.652344 285.089844 108.636719 285 109.628906 C 284.914062 110.617188 284.433594 111.53125 283.671875 112.171875 L 124.148438 245.472656 C 123.386719 246.113281 122.402344 246.421875 121.410156 246.332031 C 120.417969 246.242188 119.503906 245.765625 118.867188 245 L 90.441406 210.984375 C 89.800781 210.21875 89.492188 209.234375 89.582031 208.246094 C 89.671875 207.253906 90.148438 206.339844 90.914062 205.703125 Z M 90.914062 205.703125 " clip-rule="nonzero"/></clipPath><clipPath id="caac26ba4b"><path d="M 185 119 L 218 119 L 218 176 L 185 176 Z M 185 119 " clip-rule="nonzero"/></clipPath><clipPath id="49085243e5"><path d="M 174.246094 140.238281 L 199.136719 119.238281 L 228.535156 154.085938 L 203.644531 175.085938 Z M 174.246094 140.238281 " clip-rule="nonzero"/></clipPath><clipPath id="649ad526d1"><path d="M 199.140625 119.273438 L 217.800781 163.09375 L 203.6875 175.003906 L 185.222656 131.050781 L 199.144531 119.28125 Z M 199.140625 119.273438 " clip-rule="nonzero"/></clipPath><clipPath id="e0289b653c"><path d="M 0.0390625 0.0390625 L 32.921875 0.0390625 L 32.921875 56.199219 L 0.0390625 56.199219 Z M 0.0390625 0.0390625 " clip-rule="nonzero"/></clipPath><clipPath id="e793684e9d"><path d="M -10.753906 21.238281 L 14.136719 0.238281 L 43.535156 35.085938 L 18.644531 56.085938 Z M -10.753906 21.238281 " clip-rule="nonzero"/></clipPath><clipPath id="48b95c9723"><path d="M 14.140625 0.273438 L 32.800781 44.09375 L 18.6875 56.003906 L 0.222656 12.050781 L 14.144531 0.28125 Z M 14.140625 0.273438 " clip-rule="nonzero"/></clipPath><clipPath id="12db4d32b7"><rect x="0" width="33" y="0" height="57"/></clipPath><clipPath id="0469990341"><path d="M 184 118 L 219 118 L 219 176 L 184 176 Z M 184 118 " clip-rule="nonzero"/></clipPath><clipPath id="76dbd69b7b"><path d="M 173.519531 140.242188 L 199.476562 118.34375 L 229.476562 153.902344 L 203.519531 175.800781 Z M 173.519531 140.242188 " clip-rule="nonzero"/></clipPath><clipPath id="a5b59a8bdc"><path d="M 199.425781 118.382812 L 218.386719 163.257812 L 203.519531 175.800781 L 184.558594 130.929688 L 199.433594 118.378906 Z M 217.265625 162.984375 L 199.066406 119.90625 L 185.683594 131.195312 L 203.886719 174.273438 Z M 217.265625 162.984375 " clip-rule="nonzero"/></clipPath><clipPath id="97e2cb1098"><path d="M 0.320312 0.320312 L 34.398438 0.320312 L 34.398438 57.921875 L 0.320312 57.921875 Z M 0.320312 0.320312 " clip-rule="nonzero"/></clipPath><clipPath id="29e0de8188"><path d="M -10.480469 22.242188 L 15.476562 0.34375 L 45.476562 35.902344 L 19.519531 57.800781 Z M -10.480469 22.242188 " clip-rule="nonzero"/></clipPath><clipPath id="248c61c67f"><path d="M 15.425781 0.382812 L 34.386719 45.257812 L 19.519531 57.800781 L 0.558594 12.929688 L 15.433594 0.378906 Z M 33.265625 44.984375 L 15.066406 1.90625 L 1.683594 13.195312 L 19.886719 56.273438 Z M 33.265625 44.984375 " clip-rule="nonzero"/></clipPath><clipPath id="9759c04f6e"><rect x="0" width="35" y="0" height="58"/></clipPath><clipPath id="77f94511ff"><path d="M 159 141 L 192 141 L 192 197 L 159 197 Z M 159 141 " clip-rule="nonzero"/></clipPath><clipPath id="87a9db7e2a"><path d="M 148.273438 162.046875 L 173.164062 141.046875 L 202.566406 175.894531 L 177.675781 196.894531 Z M 148.273438 162.046875 " clip-rule="nonzero"/></clipPath><clipPath id="db2dfcf598"><path d="M 173.167969 141.082031 L 191.828125 184.902344 L 177.714844 196.8125 L 159.25 152.859375 L 173.175781 141.089844 Z M 173.167969 141.082031 " clip-rule="nonzero"/></clipPath><clipPath id="e694d62eed"><path d="M 0.121094 0 L 33 0 L 33 56 L 0.121094 56 Z M 0.121094 0 " clip-rule="nonzero"/></clipPath><clipPath id="46ab48261d"><path d="M -10.726562 21.046875 L 14.164062 0.046875 L 43.566406 34.894531 L 18.675781 55.894531 Z M -10.726562 21.046875 " clip-rule="nonzero"/></clipPath><clipPath id="b27b7905cd"><path d="M 14.167969 0.0820312 L 32.828125 43.902344 L 18.714844 55.8125 L 0.25 11.859375 L 14.175781 0.0898438 Z M 14.167969 0.0820312 " clip-rule="nonzero"/></clipPath><clipPath id="1c0fb1d12a"><rect x="0" width="33" y="0" height="56"/></clipPath><clipPath id="eacf93265f"><path d="M 158 140 L 193 140 L 193 198 L 158 198 Z M 158 140 " clip-rule="nonzero"/></clipPath><clipPath id="78468fc673"><path d="M 147.546875 162.050781 L 173.503906 140.152344 L 203.503906 175.710938 L 177.546875 197.609375 Z M 147.546875 162.050781 " clip-rule="nonzero"/></clipPath><clipPath id="69d15d3a5c"><path d="M 173.453125 140.195312 L 192.417969 185.066406 L 177.546875 197.609375 L 158.585938 152.738281 L 173.460938 140.1875 Z M 191.296875 184.792969 L 173.09375 141.714844 L 159.714844 153.003906 L 177.914062 196.082031 Z M 191.296875 184.792969 " clip-rule="nonzero"/></clipPath><clipPath id="e027793416"><path d="M 0.398438 0.160156 L 34.480469 0.160156 L 34.480469 57.761719 L 0.398438 57.761719 Z M 0.398438 0.160156 " clip-rule="nonzero"/></clipPath><clipPath id="39b859ea3a"><path d="M -10.453125 22.050781 L 15.503906 0.152344 L 45.503906 35.710938 L 19.546875 57.609375 Z M -10.453125 22.050781 " clip-rule="nonzero"/></clipPath><clipPath id="840fd5047f"><path d="M 15.453125 0.195312 L 34.417969 45.066406 L 19.546875 57.609375 L 0.585938 12.738281 L 15.460938 0.1875 Z M 33.296875 44.792969 L 15.09375 1.714844 L 1.683594 13.003906 L 19.914062 56.082031 Z M 33.296875 44.792969 " clip-rule="nonzero"/></clipPath><clipPath id="d67cbb8fb9"><rect x="0" width="35" y="0" height="58"/></clipPath><clipPath id="2f2119cc13"><path d="M 132 163 L 166 163 L 166 219 L 132 219 Z M 132 163 " clip-rule="nonzero"/></clipPath><clipPath id="f25770f6dd"><path d="M 121.679688 183.972656 L 146.570312 162.972656 L 175.972656 197.820312 L 151.082031 218.820312 Z M 121.679688 183.972656 " clip-rule="nonzero"/></clipPath><clipPath id="d435cc47ae"><path d="M 146.574219 163.007812 L 165.234375 206.832031 L 151.121094 218.738281 L 132.65625 174.789062 L 146.582031 163.015625 Z M 146.574219 163.007812 " clip-rule="nonzero"/></clipPath><clipPath id="4f141b5132"><path d="M 0.480469 0 L 33.359375 0 L 33.359375 55.878906 L 0.480469 55.878906 Z M 0.480469 0 " clip-rule="nonzero"/></clipPath><clipPath id="e67418fce7"><path d="M -10.320312 20.972656 L 14.570312 -0.0273438 L 43.972656 34.820312 L 19.082031 55.820312 Z M -10.320312 20.972656 " clip-rule="nonzero"/></clipPath><clipPath id="a9bce025b5"><path d="M 14.574219 0.0078125 L 33.234375 43.832031 L 19.121094 55.738281 L 0.65625 11.789062 L 14.582031 0.015625 Z M 14.574219 0.0078125 " clip-rule="nonzero"/></clipPath><clipPath id="d6731818cf"><rect x="0" width="34" y="0" height="56"/></clipPath><clipPath id="c12ff745e5"><path d="M 131 162 L 166 162 L 166 220 L 131 220 Z M 131 162 " clip-rule="nonzero"/></clipPath><clipPath id="cbb0a423b9"><path d="M 120.953125 183.980469 L 146.910156 162.078125 L 176.910156 197.636719 L 150.953125 219.539062 Z M 120.953125 183.980469 " clip-rule="nonzero"/></clipPath><clipPath id="3da7a0cea3"><path d="M 146.859375 162.121094 L 165.824219 206.992188 L 150.953125 219.539062 L 131.992188 174.664062 L 146.867188 162.113281 Z M 164.703125 206.71875 L 146.5 163.644531 L 133.121094 174.933594 L 151.320312 218.007812 Z M 164.703125 206.71875 " clip-rule="nonzero"/></clipPath><clipPath id="d6325c4a21"><path d="M 0.761719 0 L 34.839844 0 L 34.839844 57.601562 L 0.761719 57.601562 Z M 0.761719 0 " clip-rule="nonzero"/></clipPath><clipPath id="9609a376ea"><path d="M -10.046875 21.980469 L 15.910156 0.078125 L 45.910156 35.636719 L 19.953125 57.539062 Z M -10.046875 21.980469 " clip-rule="nonzero"/></clipPath><clipPath id="e473657ab8"><path d="M 15.859375 0.121094 L 34.824219 44.992188 L 19.953125 57.539062 L 0.992188 12.664062 L 15.867188 0.113281 Z M 33.703125 44.71875 L 15.5 1.644531 L 2.121094 12.933594 L 20.320312 56.007812 Z M 33.703125 44.71875 " clip-rule="nonzero"/></clipPath><clipPath id="d13490a388"><rect x="0" width="35" y="0" height="58"/></clipPath><clipPath id="568f328f27"><path d="M 106 184 L 140 184 L 140 241 L 106 241 Z M 106 184 " clip-rule="nonzero"/></clipPath><clipPath id="c56ff97b96"><path d="M 95.789062 205.828125 L 120.679688 184.828125 L 150.078125 219.675781 L 125.1875 240.675781 Z M 95.789062 205.828125 " clip-rule="nonzero"/></clipPath><clipPath id="1bc5985fbc"><path d="M 120.683594 184.863281 L 139.34375 228.6875 L 125.230469 240.59375 L 106.765625 196.640625 L 120.6875 184.871094 Z M 120.683594 184.863281 " clip-rule="nonzero"/></clipPath><clipPath id="35095a48ac"><path d="M 0.558594 0.800781 L 33.441406 0.800781 L 33.441406 56.71875 L 0.558594 56.71875 Z M 0.558594 0.800781 " clip-rule="nonzero"/></clipPath><clipPath id="2fa501fe20"><path d="M -10.210938 21.828125 L 14.679688 0.828125 L 44.078125 35.675781 L 19.1875 56.675781 Z M -10.210938 21.828125 " clip-rule="nonzero"/></clipPath><clipPath id="211360e806"><path d="M 14.683594 0.863281 L 33.34375 44.6875 L 19.230469 56.59375 L 0.765625 12.640625 L 14.6875 0.871094 Z M 14.683594 0.863281 " clip-rule="nonzero"/></clipPath><clipPath id="4f3f231590"><rect x="0" width="34" y="0" height="57"/></clipPath><clipPath id="da622e5266"><path d="M 106 183 L 140 183 L 140 242 L 106 242 Z M 106 183 " clip-rule="nonzero"/></clipPath><clipPath id="1c9e80e689"><path d="M 95.0625 205.832031 L 121.019531 183.933594 L 151.019531 219.492188 L 125.0625 241.390625 Z M 95.0625 205.832031 " clip-rule="nonzero"/></clipPath><clipPath id="437081a93a"><path d="M 120.96875 183.976562 L 139.929688 228.847656 L 125.0625 241.390625 L 106.101562 196.519531 L 120.976562 183.96875 Z M 138.808594 228.574219 L 120.609375 185.496094 L 107.226562 196.789062 L 125.429688 239.863281 Z M 138.808594 228.574219 " clip-rule="nonzero"/></clipPath><clipPath id="e0eb9e005f"><path d="M 0.078125 0.839844 L 34 0.839844 L 34 58.441406 L 0.078125 58.441406 Z M 0.078125 0.839844 " clip-rule="nonzero"/></clipPath><clipPath id="94ed2596c8"><path d="M -10.9375 22.832031 L 15.019531 0.933594 L 45.019531 36.492188 L 19.0625 58.390625 Z M -10.9375 22.832031 " clip-rule="nonzero"/></clipPath><clipPath id="7b1a367aec"><path d="M 14.96875 0.976562 L 33.929688 45.847656 L 19.0625 58.390625 L 0.101562 13.519531 L 14.976562 0.96875 Z M 32.808594 45.574219 L 14.609375 2.496094 L 1.226562 13.789062 L 19.429688 56.863281 Z M 32.808594 45.574219 " clip-rule="nonzero"/></clipPath><clipPath id="d1ab5b7b7d"><rect x="0" width="34" y="0" height="59"/></clipPath><clipPath id="48b3d0b6a7"><path d="M 235 76 L 269 76 L 269 133 L 235 133 Z M 235 76 " clip-rule="nonzero"/></clipPath><clipPath id="9ead2b48c8"><path d="M 224.902344 97.867188 L 249.792969 76.867188 L 279.195312 111.714844 L 254.300781 132.714844 Z M 224.902344 97.867188 " clip-rule="nonzero"/></clipPath><clipPath id="902a3771a4"><path d="M 249.796875 76.898438 L 268.457031 120.722656 L 254.34375 132.628906 L 235.878906 88.679688 L 249.800781 76.90625 Z M 249.796875 76.898438 " clip-rule="nonzero"/></clipPath><clipPath id="171090811e"><path d="M 0.679688 0.800781 L 33.558594 0.800781 L 33.558594 56.71875 L 0.679688 56.71875 Z M 0.679688 0.800781 " clip-rule="nonzero"/></clipPath><clipPath id="431d44e070"><path d="M -10.097656 21.867188 L 14.792969 0.867188 L 44.195312 35.714844 L 19.300781 56.714844 Z M -10.097656 21.867188 " clip-rule="nonzero"/></clipPath><clipPath id="e1adae9c03"><path d="M 14.796875 0.898438 L 33.457031 44.722656 L 19.34375 56.628906 L 0.878906 12.679688 L 14.800781 0.90625 Z M 14.796875 0.898438 " clip-rule="nonzero"/></clipPath><clipPath id="0173f49d62"><rect x="0" width="34" y="0" height="57"/></clipPath><clipPath id="9e31229c30"><path d="M 235 76 L 270 76 L 270 134 L 235 134 Z M 235 76 " clip-rule="nonzero"/></clipPath><clipPath id="9024da4606"><path d="M 224.175781 97.871094 L 250.132812 75.96875 L 280.132812 111.527344 L 254.175781 133.429688 Z M 224.175781 97.871094 " clip-rule="nonzero"/></clipPath><clipPath id="bab672ffb4"><path d="M 250.082031 76.011719 L 269.042969 120.882812 L 254.175781 133.429688 L 235.214844 88.558594 L 250.089844 76.007812 Z M 267.925781 120.613281 L 249.722656 77.535156 L 236.339844 88.824219 L 254.542969 131.902344 Z M 267.925781 120.613281 " clip-rule="nonzero"/></clipPath><clipPath id="27af8889a6"><path d="M 0.199219 0 L 34.28125 0 L 34.28125 57.441406 L 0.199219 57.441406 Z M 0.199219 0 " clip-rule="nonzero"/></clipPath><clipPath id="dda16d90d6"><path d="M -10.824219 21.871094 L 15.132812 -0.03125 L 45.132812 35.527344 L 19.175781 57.429688 Z M -10.824219 21.871094 " clip-rule="nonzero"/></clipPath><clipPath id="9455907a38"><path d="M 15.082031 0.0117188 L 34.042969 44.882812 L 19.175781 57.429688 L 0.214844 12.558594 L 15.089844 0.0078125 Z M 32.925781 44.613281 L 14.722656 1.535156 L 1.339844 12.824219 L 19.542969 55.902344 Z M 32.925781 44.613281 " clip-rule="nonzero"/></clipPath><clipPath id="d9e4ed797b"><rect x="0" width="35" y="0" height="58"/></clipPath><clipPath id="d73f7ceeb9"><path d="M 211 97 L 244 97 L 244 154 L 211 154 Z M 211 97 " clip-rule="nonzero"/></clipPath><clipPath id="637d210ce9"><path d="M 200.039062 118.5 L 224.929688 97.5 L 254.328125 132.347656 L 229.4375 153.347656 Z M 200.039062 118.5 " clip-rule="nonzero"/></clipPath><clipPath id="8aa843323c"><path d="M 224.933594 97.535156 L 243.59375 141.359375 L 229.480469 153.265625 L 211.015625 109.316406 L 224.9375 97.542969 Z M 224.933594 97.535156 " clip-rule="nonzero"/></clipPath><clipPath id="8505cf08ea"><path d="M 0 0.441406 L 32.601562 0.441406 L 32.601562 56.359375 L 0 56.359375 Z M 0 0.441406 " clip-rule="nonzero"/></clipPath><clipPath id="6495417f19"><path d="M -10.960938 21.5 L 13.929688 0.5 L 43.328125 35.347656 L 18.4375 56.347656 Z M -10.960938 21.5 " clip-rule="nonzero"/></clipPath><clipPath id="4932ae4748"><path d="M 13.933594 0.535156 L 32.59375 44.359375 L 18.480469 56.265625 L 0.015625 12.316406 L 13.9375 0.542969 Z M 13.933594 0.535156 " clip-rule="nonzero"/></clipPath><clipPath id="b72ff47f79"><rect x="0" width="33" y="0" height="57"/></clipPath><clipPath id="5377b176e7"><path d="M 210 96 L 245 96 L 245 155 L 210 155 Z M 210 96 " clip-rule="nonzero"/></clipPath><clipPath id="ab9f3c7024"><path d="M 199.3125 118.507812 L 225.269531 96.605469 L 255.269531 132.164062 L 229.3125 154.066406 Z M 199.3125 118.507812 " clip-rule="nonzero"/></clipPath><clipPath id="eaf4c9c543"><path d="M 225.21875 96.648438 L 244.179688 141.519531 L 229.3125 154.066406 L 210.351562 109.191406 L 225.226562 96.640625 Z M 243.058594 141.246094 L 224.859375 98.171875 L 211.476562 109.460938 L 229.679688 152.535156 Z M 243.058594 141.246094 " clip-rule="nonzero"/></clipPath><clipPath id="49b5b6c074"><path d="M 0.238281 0.480469 L 34.320312 0.480469 L 34.320312 58.078125 L 0.238281 58.078125 Z M 0.238281 0.480469 " clip-rule="nonzero"/></clipPath><clipPath id="c681e3eb49"><path d="M -10.6875 22.507812 L 15.269531 0.605469 L 45.269531 36.164062 L 19.3125 58.066406 Z M -10.6875 22.507812 " clip-rule="nonzero"/></clipPath><clipPath id="250c23ff62"><path d="M 15.21875 0.648438 L 34.179688 45.519531 L 19.3125 58.066406 L 0.351562 13.191406 L 15.226562 0.640625 Z M 33.058594 45.246094 L 14.859375 2.171875 L 1.476562 13.460938 L 19.679688 56.535156 Z M 33.058594 45.246094 " clip-rule="nonzero"/></clipPath><clipPath id="8f9673f0e3"><rect x="0" width="35" y="0" height="59"/></clipPath><clipPath id="58a623e919"><path d="M 121 195 L 361 195 L 361 374 L 121 374 Z M 121 195 " clip-rule="nonzero"/></clipPath><clipPath id="05ef7cf14e"><path d="M 120.957031 248.632812 L 329.035156 194.542969 L 361.765625 320.472656 L 153.6875 374.558594 Z M 120.957031 248.632812 " clip-rule="nonzero"/></clipPath><clipPath id="ecb9ff8c49"><path d="M 329.71875 198.242188 L 360.566406 316.910156 C 360.816406 317.875 360.675781 318.894531 360.171875 319.753906 C 359.667969 320.609375 358.84375 321.234375 357.878906 321.484375 L 157.316406 373.617188 C 156.355469 373.867188 155.332031 373.722656 154.476562 373.222656 C 153.617188 372.71875 152.996094 371.894531 152.746094 370.929688 L 121.898438 252.261719 C 121.648438 251.296875 121.792969 250.277344 122.292969 249.417969 C 122.796875 248.558594 123.621094 247.9375 124.585938 247.6875 L 325.148438 195.554688 C 326.109375 195.304688 327.132812 195.445312 327.988281 195.949219 C 328.847656 196.453125 329.46875 197.277344 329.71875 198.242188 Z M 329.71875 198.242188 " clip-rule="nonzero"/></clipPath><clipPath id="2b1c82b26f"><path d="M 0.441406 0.121094 L 239.960938 0.121094 L 239.960938 178.921875 L 0.441406 178.921875 Z M 0.441406 0.121094 " clip-rule="nonzero"/></clipPath><clipPath id="534cb6f576"><path d="M -0.0429688 53.632812 L 208.035156 -0.457031 L 240.765625 125.472656 L 32.6875 179.558594 Z M -0.0429688 53.632812 " clip-rule="nonzero"/></clipPath><clipPath id="ba14a16750"><path d="M 208.71875 3.242188 L 239.566406 121.910156 C 239.816406 122.875 239.675781 123.894531 239.171875 124.753906 C 238.667969 125.609375 237.84375 126.234375 236.878906 126.484375 L 36.316406 178.617188 C 35.355469 178.867188 34.332031 178.722656 33.476562 178.222656 C 32.617188 177.71875 31.996094 176.894531 31.746094 175.929688 L 0.898438 57.261719 C 0.648438 56.296875 0.792969 55.277344 1.292969 54.417969 C 1.796875 53.558594 2.621094 52.9375 3.585938 52.6875 L 204.148438 0.554688 C 205.109375 0.304688 206.132812 0.445312 206.988281 0.949219 C 207.847656 1.453125 208.46875 2.277344 208.71875 3.242188 Z M 208.71875 3.242188 " clip-rule="nonzero"/></clipPath><clipPath id="e621a75f26"><rect x="0" width="240" y="0" height="179"/></clipPath><clipPath id="7e6c1f5d74"><path d="M 121 195 L 361 195 L 361 374 L 121 374 Z M 121 195 " clip-rule="nonzero"/></clipPath><clipPath id="d50325151b"><path d="M 120.957031 248.632812 L 328.558594 194.667969 L 361.386719 320.972656 L 153.785156 374.933594 Z M 120.957031 248.632812 " clip-rule="nonzero"/></clipPath><clipPath id="6b08a84ae0"><path d="M 120.960938 248.65625 L 333.414062 193.429688 L 368.554688 328.628906 L 156.105469 383.851562 Z M 120.960938 248.65625 " clip-rule="nonzero"/></clipPath><clipPath id="6b50611478"><path d="M 329.722656 198.265625 L 360.566406 316.933594 C 360.816406 317.894531 360.675781 318.917969 360.171875 319.777344 C 359.667969 320.632812 358.84375 321.253906 357.882812 321.507812 L 157.324219 373.636719 C 156.359375 373.886719 155.339844 373.746094 154.480469 373.242188 C 153.625 372.738281 153 371.914062 152.75 370.953125 L 121.90625 252.285156 C 121.65625 251.320312 121.796875 250.300781 122.300781 249.441406 C 122.804688 248.585938 123.628906 247.960938 124.589844 247.710938 L 325.148438 195.578125 C 326.113281 195.328125 327.132812 195.472656 327.992188 195.976562 C 328.847656 196.480469 329.472656 197.304688 329.722656 198.265625 Z M 329.722656 198.265625 " clip-rule="nonzero"/></clipPath></defs><g clip-path="url(#f9a551a144)"><g clip-path="url(#97bd9553e5)"><g clip-path="url(#9020e80ef5)"><g transform="matrix(1, 0, 0, 1, 89, 71)"><g clip-path="url(#7e6a0f0d7b)"><g clip-path="url(#acda75ebb8)"><g clip-path="url(#3878ca31b2)"><g clip-path="url(#5419bd0406)"><path fill="#000000" d="M -0.964844 137.105469 L 164.347656 -1.035156 L 197.585938 38.738281 L 32.273438 176.882812 Z M -0.964844 137.105469 " fill-opacity="1" fill-rule="nonzero"/></g></g></g></g></g></g></g></g><g clip-path="url(#dc0d77b02d)"><g clip-path="url(#c75a101d39)"><g clip-path="url(#f834f963b9)"><g clip-path="url(#023c3c83e2)"><path stroke-linecap="butt" transform="matrix(0.575509, -0.480925, 0.480925, 0.575509, 88.035508, 208.105985)" fill="none" stroke-linejoin="miter" d="M 4.999522 0.00267098 L 282.180947 0.000807169 C 283.508002 -0.00338045 284.782981 0.525848 285.717304 1.462729 C 286.655623 2.40295 287.183375 3.672038 287.180226 4.99975 L 287.184781 64.108836 C 287.181632 65.436548 286.655743 66.70753 285.715522 67.64585 C 284.782638 68.583512 283.509554 69.107924 282.182498 69.112112 L 5.000416 69.106639 C 3.67336 69.110827 2.402378 68.584938 1.464059 67.644717 C 0.525739 66.704496 -0.002012 65.435409 0.00113673 64.107696 L 0.000578693 5.00195 C -0.000269167 3.670898 0.52562 2.399916 1.462501 1.465593 C 2.402721 0.527274 3.671809 -0.000477752 4.999522 0.00267098 Z M 4.999522 0.00267098 " stroke="#ffffff" stroke-width="2" stroke-opacity="1" stroke-miterlimit="4"/></g></g></g></g><g clip-path="url(#caac26ba4b)"><g clip-path="url(#49085243e5)"><g clip-path="url(#649ad526d1)"><g transform="matrix(1, 0, 0, 1, 185, 119)"><g clip-path="url(#12db4d32b7)"><g clip-path="url(#e0289b653c)"><g clip-path="url(#e793684e9d)"><g clip-path="url(#48b95c9723)"><path fill="#ffffff" d="M -11.480469 21.242188 L 14.40625 -0.597656 L 44.40625 34.960938 L 18.519531 56.800781 Z M -11.480469 21.242188 " fill-opacity="1" fill-rule="nonzero"/></g></g></g></g></g></g></g></g><g clip-path="url(#0469990341)"><g clip-path="url(#76dbd69b7b)"><g clip-path="url(#a5b59a8bdc)"><g transform="matrix(1, 0, 0, 1, 184, 118)"><g clip-path="url(#9759c04f6e)"><g clip-path="url(#97e2cb1098)"><g clip-path="url(#29e0de8188)"><g clip-path="url(#248c61c67f)"><path fill="#ffffff" d="M -10.480469 22.242188 L 15.40625 0.402344 L 45.40625 35.960938 L 19.519531 57.800781 Z M -10.480469 22.242188 " fill-opacity="1" fill-rule="nonzero"/></g></g></g></g></g></g></g></g><g clip-path="url(#77f94511ff)"><g clip-path="url(#87a9db7e2a)"><g clip-path="url(#db2dfcf598)"><g transform="matrix(1, 0, 0, 1, 159, 141)"><g clip-path="url(#1c0fb1d12a)"><g clip-path="url(#e694d62eed)"><g clip-path="url(#46ab48261d)"><g clip-path="url(#b27b7905cd)"><path fill="#ffffff" d="M -11.453125 21.050781 L 14.433594 -0.789062 L 44.433594 34.769531 L 18.546875 56.609375 Z M -11.453125 21.050781 " fill-opacity="1" fill-rule="nonzero"/></g></g></g></g></g></g></g></g><g clip-path="url(#eacf93265f)"><g clip-path="url(#78468fc673)"><g clip-path="url(#69d15d3a5c)"><g transform="matrix(1, 0, 0, 1, 158, 140)"><g clip-path="url(#d67cbb8fb9)"><g clip-path="url(#e027793416)"><g clip-path="url(#39b859ea3a)"><g clip-path="url(#840fd5047f)"><path fill="#ffffff" d="M -10.453125 22.050781 L 15.433594 0.210938 L 45.433594 35.769531 L 19.546875 57.609375 Z M -10.453125 22.050781 " fill-opacity="1" fill-rule="nonzero"/></g></g></g></g></g></g></g></g><g clip-path="url(#2f2119cc13)"><g clip-path="url(#f25770f6dd)"><g clip-path="url(#d435cc47ae)"><g transform="matrix(1, 0, 0, 1, 132, 163)"><g clip-path="url(#d6731818cf)"><g clip-path="url(#4f141b5132)"><g clip-path="url(#e67418fce7)"><g clip-path="url(#a9bce025b5)"><path fill="#ffffff" d="M -11.046875 20.980469 L 14.839844 -0.863281 L 44.839844 34.695312 L 18.953125 56.539062 Z M -11.046875 20.980469 " fill-opacity="1" fill-rule="nonzero"/></g></g></g></g></g></g></g></g><g clip-path="url(#c12ff745e5)"><g clip-path="url(#cbb0a423b9)"><g clip-path="url(#3da7a0cea3)"><g transform="matrix(1, 0, 0, 1, 131, 162)"><g clip-path="url(#d13490a388)"><g clip-path="url(#d6325c4a21)"><g clip-path="url(#9609a376ea)"><g clip-path="url(#e473657ab8)"><path fill="#ffffff" d="M -10.046875 21.980469 L 15.839844 0.136719 L 45.839844 35.695312 L 19.953125 57.539062 Z M -10.046875 21.980469 " fill-opacity="1" fill-rule="nonzero"/></g></g></g></g></g></g></g></g><g clip-path="url(#568f328f27)"><g clip-path="url(#c56ff97b96)"><g clip-path="url(#1bc5985fbc)"><g transform="matrix(1, 0, 0, 1, 106, 184)"><g clip-path="url(#4f3f231590)"><g clip-path="url(#35095a48ac)"><g clip-path="url(#2fa501fe20)"><g clip-path="url(#211360e806)"><path fill="#ffffff" d="M -10.9375 21.832031 L 14.949219 -0.0078125 L 44.949219 35.550781 L 19.0625 57.390625 Z M -10.9375 21.832031 " fill-opacity="1" fill-rule="nonzero"/></g></g></g></g></g></g></g></g><g clip-path="url(#da622e5266)"><g clip-path="url(#1c9e80e689)"><g clip-path="url(#437081a93a)"><g transform="matrix(1, 0, 0, 1, 106, 183)"><g clip-path="url(#d1ab5b7b7d)"><g clip-path="url(#e0eb9e005f)"><g clip-path="url(#94ed2596c8)"><g clip-path="url(#7b1a367aec)"><path fill="#ffffff" d="M -10.9375 22.832031 L 14.949219 0.992188 L 44.949219 36.550781 L 19.0625 58.390625 Z M -10.9375 22.832031 " fill-opacity="1" fill-rule="nonzero"/></g></g></g></g></g></g></g></g><g clip-path="url(#48b3d0b6a7)"><g clip-path="url(#9ead2b48c8)"><g clip-path="url(#902a3771a4)"><g transform="matrix(1, 0, 0, 1, 235, 76)"><g clip-path="url(#0173f49d62)"><g clip-path="url(#171090811e)"><g clip-path="url(#431d44e070)"><g clip-path="url(#e1adae9c03)"><path fill="#ffffff" d="M -10.824219 21.871094 L 15.0625 0.03125 L 45.0625 35.589844 L 19.175781 57.429688 Z M -10.824219 21.871094 " fill-opacity="1" fill-rule="nonzero"/></g></g></g></g></g></g></g></g><g clip-path="url(#9e31229c30)"><g clip-path="url(#9024da4606)"><g clip-path="url(#bab672ffb4)"><g transform="matrix(1, 0, 0, 1, 235, 76)"><g clip-path="url(#d9e4ed797b)"><g clip-path="url(#27af8889a6)"><g clip-path="url(#dda16d90d6)"><g clip-path="url(#9455907a38)"><path fill="#ffffff" d="M -10.824219 21.871094 L 15.0625 0.03125 L 45.0625 35.589844 L 19.175781 57.429688 Z M -10.824219 21.871094 " fill-opacity="1" fill-rule="nonzero"/></g></g></g></g></g></g></g></g><g clip-path="url(#d73f7ceeb9)"><g clip-path="url(#637d210ce9)"><g clip-path="url(#8aa843323c)"><g transform="matrix(1, 0, 0, 1, 211, 97)"><g clip-path="url(#b72ff47f79)"><g clip-path="url(#8505cf08ea)"><g clip-path="url(#6495417f19)"><g clip-path="url(#4932ae4748)"><path fill="#ffffff" d="M -11.6875 21.507812 L 14.199219 -0.335938 L 44.199219 35.222656 L 18.3125 57.066406 Z M -11.6875 21.507812 " fill-opacity="1" fill-rule="nonzero"/></g></g></g></g></g></g></g></g><g clip-path="url(#5377b176e7)"><g clip-path="url(#ab9f3c7024)"><g clip-path="url(#eaf4c9c543)"><g transform="matrix(1, 0, 0, 1, 210, 96)"><g clip-path="url(#8f9673f0e3)"><g clip-path="url(#49b5b6c074)"><g clip-path="url(#c681e3eb49)"><g clip-path="url(#250c23ff62)"><path fill="#ffffff" d="M -10.6875 22.507812 L 15.199219 0.664062 L 45.199219 36.222656 L 19.3125 58.066406 Z M -10.6875 22.507812 " fill-opacity="1" fill-rule="nonzero"/></g></g></g></g></g></g></g></g><g clip-path="url(#58a623e919)"><g clip-path="url(#05ef7cf14e)"><g clip-path="url(#ecb9ff8c49)"><g transform="matrix(1, 0, 0, 1, 121, 195)"><g clip-path="url(#e621a75f26)"><g clip-path="url(#2b1c82b26f)"><g clip-path="url(#534cb6f576)"><g clip-path="url(#ba14a16750)"><path fill="#000000" d="M -0.0429688 53.632812 L 207.542969 -0.328125 L 240.273438 125.601562 L 32.6875 179.558594 Z M -0.0429688 53.632812 " fill-opacity="1" fill-rule="nonzero"/></g></g></g></g></g></g></g></g><g clip-path="url(#7e6c1f5d74)"><g clip-path="url(#d50325151b)"><g clip-path="url(#6b08a84ae0)"><g clip-path="url(#6b50611478)"><path stroke-linecap="butt" transform="matrix(0.725878, -0.188681, 0.188681, 0.725878, 120.961609, 248.655156)" fill="none" stroke-linejoin="miter" d="M 286.298145 4.999977 L 286.295424 168.481147 C 286.295707 169.805047 285.770944 171.078573 284.832415 172.018528 C 283.895197 172.953442 282.623248 173.478463 281.298037 173.483787 L 5.001313 173.479757 C 3.672371 173.47873 2.403886 172.955276 1.463932 172.016748 C 0.529018 171.07953 -0.00104465 169.806271 -0.00132793 168.48237 L 0.00139338 5.0012 C 0.00242038 3.672259 0.525874 2.403774 1.464402 1.463819 C 2.40162 0.528905 3.674879 -0.00115714 4.99878 -0.00144042 L 281.296815 -0.00245066 C 282.625756 -0.00142365 283.892931 0.52707 284.832886 1.465599 C 285.7678 2.402817 286.297862 3.676076 286.298145 4.999977 Z M 286.298145 4.999977 " stroke="#ffffff" stroke-width="2" stroke-opacity="1" stroke-miterlimit="4"/></g></g></g></g><g fill="#ffffff" fill-opacity="1"><g transform="translate(164.338025, 321.707952)"><g><path d="M 3.203125 -0.84375 L -5.53125 -33.828125 L 6.671875 -37.0625 C 9.304688 -37.757812 11.609375 -37.894531 13.578125 -37.46875 C 15.546875 -37.050781 17.15625 -36.1875 18.40625 -34.875 C 19.65625 -33.5625 20.535156 -31.945312 21.046875 -30.03125 C 21.523438 -28.207031 21.5625 -26.425781 21.15625 -24.6875 C 20.75 -22.945312 19.800781 -21.382812 18.3125 -20 C 16.832031 -18.625 14.738281 -17.578125 12.03125 -16.859375 L 5.875 -15.234375 L 9.25 -2.453125 Z M 4.578125 -20.125 L 10.359375 -21.640625 C 12.460938 -22.203125 13.851562 -23.066406 14.53125 -24.234375 C 15.21875 -25.410156 15.347656 -26.800781 14.921875 -28.40625 C 14.492188 -30.03125 13.691406 -31.1875 12.515625 -31.875 C 11.335938 -32.5625 9.695312 -32.625 7.59375 -32.0625 L 1.8125 -30.546875 Z M 4.578125 -20.125 "/></g></g></g><g fill="#ffffff" fill-opacity="1"><g transform="translate(192.944933, 314.139059)"><g><path d="M 3.0625 -0.8125 L -5.90625 -34.734375 L 0.125 -36.328125 L 9.09375 -2.40625 Z M 3.0625 -0.8125 "/></g></g></g><g fill="#ffffff" fill-opacity="1"><g transform="translate(205.151182, 310.909497)"><g><path d="M 11.265625 -2.375 C 9.253906 -1.84375 7.519531 -1.726562 6.0625 -2.03125 C 4.613281 -2.332031 3.429688 -2.9375 2.515625 -3.84375 C 1.609375 -4.75 0.984375 -5.847656 0.640625 -7.140625 C 0.0664062 -9.304688 0.445312 -11.285156 1.78125 -13.078125 C 3.125 -14.878906 5.488281 -16.226562 8.875 -17.125 L 14.8125 -18.703125 L 14.671875 -19.265625 C 14.242188 -20.867188 13.472656 -21.925781 12.359375 -22.4375 C 11.253906 -22.945312 10.03125 -23.019531 8.6875 -22.65625 C 7.457031 -22.332031 6.460938 -21.757812 5.703125 -20.9375 C 4.941406 -20.125 4.601562 -19.125 4.6875 -17.9375 L -1.203125 -16.375 C -1.492188 -18.101562 -1.3125 -19.726562 -0.65625 -21.25 C 0 -22.78125 1.023438 -24.085938 2.421875 -25.171875 C 3.816406 -26.265625 5.488281 -27.066406 7.4375 -27.578125 C 10.769531 -28.460938 13.609375 -28.320312 15.953125 -27.15625 C 18.304688 -26 19.890625 -23.898438 20.703125 -20.859375 L 24.5 -6.484375 L 19.359375 -5.125 L 17.8125 -8.75 C 17.445312 -7.3125 16.75 -6.019531 15.71875 -4.875 C 14.695312 -3.726562 13.210938 -2.894531 11.265625 -2.375 Z M 11.390625 -7.46875 C 13.117188 -7.914062 14.3125 -8.828125 14.96875 -10.203125 C 15.625 -11.585938 15.863281 -13.15625 15.6875 -14.90625 L 10.546875 -13.546875 C 8.929688 -13.117188 7.859375 -12.519531 7.328125 -11.75 C 6.796875 -10.988281 6.640625 -10.1875 6.859375 -9.34375 C 7.097656 -8.425781 7.628906 -7.804688 8.453125 -7.484375 C 9.273438 -7.171875 10.253906 -7.164062 11.390625 -7.46875 Z M 11.390625 -7.46875 "/></g></g></g><g fill="#ffffff" fill-opacity="1"><g transform="translate(232.344244, 303.714683)"><g><path d="M 3.0625 -0.8125 L -3.125 -24.1875 L 2.203125 -25.59375 L 3.71875 -21.75 C 4.070312 -23.332031 4.828125 -24.710938 5.984375 -25.890625 C 7.140625 -27.066406 8.644531 -27.898438 10.5 -28.390625 C 13.382812 -29.148438 15.867188 -28.832031 17.953125 -27.4375 C 20.035156 -26.039062 21.539062 -23.585938 22.46875 -20.078125 L 25.96875 -6.875 L 19.9375 -5.28125 L 16.59375 -17.90625 C 16.0625 -19.925781 15.242188 -21.359375 14.140625 -22.203125 C 13.046875 -23.046875 11.632812 -23.238281 9.90625 -22.78125 C 8.207031 -22.332031 6.972656 -21.367188 6.203125 -19.890625 C 5.429688 -18.410156 5.332031 -16.601562 5.90625 -14.46875 L 9.09375 -2.40625 Z M 3.0625 -0.8125 "/></g></g></g><g fill="#ffffff" fill-opacity="1"><g transform="translate(260.998283, 296.13332)"><g><path d="M 18.8125 -4.375 C 15.507812 -3.5 12.429688 -3.457031 9.578125 -4.25 C 6.734375 -5.050781 4.269531 -6.546875 2.1875 -8.734375 C 0.113281 -10.921875 -1.363281 -13.695312 -2.25 -17.0625 C -3.144531 -20.425781 -3.226562 -23.570312 -2.5 -26.5 C -1.78125 -29.425781 -0.378906 -31.9375 1.703125 -34.03125 C 3.796875 -36.125 6.492188 -37.609375 9.796875 -38.484375 C 13.054688 -39.347656 16.117188 -39.382812 18.984375 -38.59375 C 21.847656 -37.8125 24.3125 -36.320312 26.375 -34.125 C 28.4375 -31.9375 29.914062 -29.160156 30.8125 -25.796875 C 31.695312 -22.429688 31.785156 -19.285156 31.078125 -16.359375 C 30.367188 -13.441406 28.960938 -10.929688 26.859375 -8.828125 C 24.753906 -6.722656 22.070312 -5.238281 18.8125 -4.375 Z M 17.390625 -9.78125 C 20.523438 -10.613281 22.753906 -12.316406 24.078125 -14.890625 C 25.398438 -17.460938 25.582031 -20.554688 24.625 -24.171875 C 23.664062 -27.785156 21.976562 -30.378906 19.5625 -31.953125 C 17.144531 -33.535156 14.367188 -33.910156 11.234375 -33.078125 C 8.085938 -32.242188 5.84375 -30.539062 4.5 -27.96875 C 3.164062 -25.394531 2.976562 -22.300781 3.9375 -18.6875 C 4.894531 -15.070312 6.585938 -12.472656 9.015625 -10.890625 C 11.453125 -9.316406 14.242188 -8.945312 17.390625 -9.78125 Z M 17.390625 -9.78125 "/></g></g></g><g fill="#ffffff" fill-opacity="1"><g transform="translate(298.276806, 286.270068)"><g><path d="M 14.609375 -3.265625 C 12.191406 -2.628906 9.941406 -2.476562 7.859375 -2.8125 C 5.785156 -3.15625 4.007812 -3.960938 2.53125 -5.234375 C 1.050781 -6.503906 0.0078125 -8.25 -0.59375 -10.46875 L 5.765625 -12.15625 C 6.234375 -10.632812 7.128906 -9.484375 8.453125 -8.703125 C 9.785156 -7.929688 11.378906 -7.789062 13.234375 -8.28125 C 14.835938 -8.707031 16.007812 -9.429688 16.75 -10.453125 C 17.488281 -11.472656 17.6875 -12.628906 17.34375 -13.921875 C 16.988281 -15.265625 16.296875 -16.203125 15.265625 -16.734375 C 14.234375 -17.273438 12.960938 -17.597656 11.453125 -17.703125 C 9.941406 -17.804688 8.332031 -17.914062 6.625 -18.03125 C 3.84375 -18.25 1.601562 -18.867188 -0.09375 -19.890625 C -1.789062 -20.921875 -2.941406 -22.582031 -3.546875 -24.875 C -4.097656 -26.8125 -4.078125 -28.609375 -3.484375 -30.265625 C -2.898438 -31.921875 -1.875 -33.347656 -0.40625 -34.546875 C 1.050781 -35.753906 2.859375 -36.644531 5.015625 -37.21875 C 7.222656 -37.800781 9.269531 -37.921875 11.15625 -37.578125 C 13.050781 -37.242188 14.660156 -36.5 15.984375 -35.34375 C 17.316406 -34.1875 18.269531 -32.640625 18.84375 -30.703125 L 12.40625 -29 C 12.0625 -30.15625 11.335938 -31.0625 10.234375 -31.71875 C 9.128906 -32.382812 7.8125 -32.515625 6.28125 -32.109375 C 4.945312 -31.796875 3.921875 -31.179688 3.203125 -30.265625 C 2.492188 -29.359375 2.304688 -28.265625 2.640625 -26.984375 C 2.929688 -25.878906 3.507812 -25.09375 4.375 -24.625 C 5.238281 -24.164062 6.320312 -23.875 7.625 -23.75 C 8.9375 -23.632812 10.429688 -23.523438 12.109375 -23.421875 C 13.890625 -23.285156 15.554688 -23.019531 17.109375 -22.625 C 18.660156 -22.226562 20.007812 -21.515625 21.15625 -20.484375 C 22.300781 -19.460938 23.128906 -17.976562 23.640625 -16.03125 C 24.097656 -14.3125 24.082031 -12.59375 23.59375 -10.875 C 23.101562 -9.164062 22.109375 -7.632812 20.609375 -6.28125 C 19.117188 -4.9375 17.117188 -3.929688 14.609375 -3.265625 Z M 14.609375 -3.265625 "/></g></g></g></svg>
